<svg width="114" height="143" viewBox="0 0 114 143" fill="none" xmlns="http://www.w3.org/2000/svg">
<path d="M43.6799 58.712C87.5153 42.1641 101.848 13.9668 103.784 0.978989C103.827 0.65018 103.869 0.32383 103.91 0C130.01 70.7374 103.91 143.597 43.6799 136.523C26.7127 134.53 14.8439 129.17 7.80426 122.022C-10.1456 103.797 3.30103 73.9551 43.6799 58.712Z" fill="#68B971"/>
<path d="M43.6799 58.712C87.5153 42.1641 101.848 13.9668 103.784 0.978989C103.827 0.65018 103.869 0.32383 103.91 0C130.01 70.7374 103.91 143.597 43.6799 136.523C26.7127 134.53 14.8439 129.17 7.80426 122.022C-10.1456 103.797 3.30103 73.9551 43.6799 58.712Z" fill="black" fill-opacity="0.2"/>
<path d="M104.218 1.32617C87.4178 113.326 29.2178 122.326 2.21777 112.826C2.21777 123.326 35.7178 164.326 85.2178 126.826C124.818 96.8262 114.384 30.6595 104.218 1.32617Z" fill="#78B931"/>
</svg>
